<svg width="25" height="23" viewBox="0 0 25 23" fill="none" xmlns="http://www.w3.org/2000/svg">
<path fill-rule="evenodd" clip-rule="evenodd" d="M15.0726 7.93757C16.598 8.23418 18.2351 6.82907 18.7291 4.79916C19.2231 2.76926 18.3869 0.883246 16.8615 0.586637C15.3361 0.290028 13.699 1.69514 13.205 3.72505C12.7111 5.75495 13.5472 7.64096 15.0726 7.93757ZM24.2537 11.9849C23.7597 14.0148 22.1227 15.4199 20.5972 15.1233C19.0718 14.8267 18.2357 12.9407 18.7297 10.9108C19.2237 8.88087 20.8607 7.47576 22.3862 7.77236C23.9116 8.06897 24.7477 9.95499 24.2537 11.9849ZM10.0129 12.2469C11.1684 10.8897 13.4528 10.8897 14.6083 12.2469L19.8843 18.4439C21.601 20.4602 19.3785 23.2498 16.6854 22.459L13.2117 21.439C12.6264 21.2671 11.9948 21.2671 11.4094 21.439L7.93575 22.459C5.24264 23.2498 3.02019 20.4602 4.73689 18.4439L10.0129 12.2469ZM0.368446 11.9849C0.862442 14.0148 2.4995 15.4199 4.02491 15.1233C5.55032 14.8267 6.38645 12.9407 5.89245 10.9108C5.39846 8.88087 3.7614 7.47576 2.23599 7.77236C0.710579 8.06897 -0.12555 9.95499 0.368446 11.9849ZM9.54955 7.93757C8.02414 8.23418 6.38709 6.82907 5.89309 4.79916C5.3991 2.76926 6.23523 0.883246 7.76064 0.586637C9.28605 0.290028 10.9231 1.69514 11.4171 3.72505C11.9111 5.75495 11.075 7.64096 9.54955 7.93757Z" fill="black"/>
</svg>
